<svg width="227" height="34" viewBox="0 0 227 34" fill="none" xmlns="http://www.w3.org/2000/svg">
<path d="M56.3 2.83507L52.7 8.03507C51.6 7.53507 50.3 7.23507 49 7.23507C48.2 7.23507 47.5 7.33507 46.8 7.53507C46.7 7.53507 46.6 7.53507 46.5 7.63507C45.4 7.93507 44.3 8.33507 43.4 9.03507C43.3 9.13507 43.2 9.13507 43.1 9.23507C42.3 9.83507 41.5 10.5351 40.9 11.4351C38.6 14.3351 36.8 18.5351 33.7 23.0351C33.4 23.4351 33.1 23.9351 32.7 24.3351C30.3 27.6351 27.1 30.3351 23.4 32.1351C23.2 32.2351 23 32.3351 22.8 32.4351C22.3 32.6351 21.7 32.8351 21.2 33.0351C20.8 33.1351 20.5 33.2351 20.1 33.3351C19.1 33.5351 18 33.7351 17 33.7351C16.8 33.7351 16.6 33.7351 16.3 33.7351C7.3 33.7351 0 26.4351 0 17.4351C0 8.43507 7.3 1.13507 16.3 1.13507C20.5 1.13507 24.6 2.73507 27.6 5.73507L24 10.9351C20.4 6.53507 14 6.03507 9.8 9.73507C5.5 13.3351 5 19.7351 8.6 24.0351C10.5 26.3351 13.4 27.6351 16.3 27.6351C16.5 27.6351 16.7 27.6351 17 27.6351C18.4 27.5351 19.7 27.2351 20.9 26.5351C20.9 26.5351 20.9 26.5351 21 26.5351C24.5 24.9351 27.3 21.3351 32.1 13.0351C32.3 12.7351 32.5 12.3351 32.7 11.9351C34.3 9.03507 36.5 6.53507 39.1 4.43507C39.2 4.33507 39.3 4.33507 39.4 4.23507C39.5 4.13507 39.7 4.03507 39.8 3.93507C40.1 3.73507 40.4 3.53507 40.7 3.33507C41.1 3.13507 41.5 2.93507 41.9 2.73507L42.2 2.53507C42.4 2.43507 42.6 2.33507 42.7 2.33507C42.9 2.23507 43.2 2.13507 43.4 2.03507C47.7 0.535072 52.3 0.835072 56.3 2.83507Z" fill="#5022ED"/>
<path d="M65.3 14.3351V17.4351C65.3 18.0351 65.3 18.5351 65.2 19.1351C65.1 19.6351 65.1 20.0351 65 20.5351C63.3 29.4351 54.8 35.2351 45.9 33.5351C42.9 32.9351 40.2 31.5351 37.9 29.5351L41.5 24.3351C45.3 28.4351 51.7 28.7351 55.8 24.9351C57.1 23.7351 58.1 22.2351 58.6 20.5351H48.5L52.8 14.3351H65.3Z" fill="#5022ED"/>
<path d="M101.65 14.1C100.75 13.2 99.55 12.7001 98.05 12.7001C95.15 12.7001 93.6499 14.8 93.6499 17.1C93.6499 19.7 95.55 21.5 98.25 21.5C99.25 21.5 100.55 21.2 101.75 20.1V24.4C100.85 24.8 99.55 25.4 97.75 25.4C95.25 25.4 93.15 24.5 91.75 23.1C90.55 22 89.25 20 89.25 17.1C89.25 14.4 90.35 12.1001 91.95 10.7001C93.85 9.00007 96.05 8.70007 97.55 8.70007C99.15 8.70007 100.55 8.99998 101.75 9.59998V14.1H101.65Z" fill="black"/>
<path d="M120.35 11C121.95 12.4 122.95 14.6 122.95 17.1C122.95 19.6 121.85 21.8001 120.35 23.2001C119.05 24.4001 116.95 25.4 114.05 25.4C111.05 25.4 109.05 24.4001 107.75 23.2001C106.15 21.8001 105.15 19.6 105.15 17.1C105.15 14.5 106.25 12.4 107.75 11C109.05 9.8 111.15 8.80005 114.05 8.80005C117.05 8.80005 119.05 9.8 120.35 11ZM118.45 17.1C118.45 14.6 116.55 12.7001 114.05 12.7001C111.55 12.7001 109.65 14.7 109.65 17.1C109.65 19.5 111.45 21.5 114.05 21.5C116.65 21.5 118.45 19.5 118.45 17.1Z" fill="black"/>
<path d="M129.55 0C130.95 0 132.15 1.19998 132.15 2.59998C132.15 3.99998 130.95 5.20007 129.55 5.20007C128.15 5.20007 126.95 3.99998 126.95 2.59998C126.85 1.19998 128.05 0 129.55 0ZM131.75 9.30005V25H127.35V9.30005H131.75Z" fill="black"/>
<path d="M136.85 9.30005H141.25V11.3C142.05 10.1 143.55 8.80005 146.05 8.80005C147.45 8.80005 149.45 9.20007 150.65 10.7001C151.75 12.0001 151.85 13.6 151.85 15.1V24.9H147.45V16.4C147.45 15.5 147.45 14.2 146.65 13.3C145.95 12.6 145.05 12.5 144.55 12.5C143.35 12.5 142.45 12.9 141.85 13.9C141.15 14.9 141.15 16 141.15 16.9V24.9H136.75V9.30005H136.85Z" fill="black"/>
<path d="M168.95 9.30005H173.35V24.2001C173.35 26.6001 173.15 29.1 171.15 31C170.05 32.1 168.15 33.2001 164.95 33.2001C161.95 33.2001 160.15 32.3 159.05 31.4C157.85 30.4 156.85 28.5001 156.55 26.7001H161.35C161.55 27.4001 161.95 28.1 162.45 28.6C163.35 29.4 164.55 29.4 165.15 29.4C166.45 29.4 167.25 29 167.85 28.4C168.85 27.4 168.95 26.2 168.95 24.9V22.7001C167.45 25.0001 165.35 25.3 164.15 25.3C162.05 25.3 160.25 24.6001 158.75 23.2001C157.55 22.0001 156.25 20 156.25 17C156.25 14.5 157.15 12.3 158.65 10.8C160.05 9.50005 161.95 8.70007 164.05 8.70007C166.95 8.70007 168.35 10.3001 168.95 11.2001V9.30005ZM162.25 13.8C161.55 14.5 160.85 15.5 160.85 17.1C160.85 18.5 161.35 19.5001 162.05 20.2001C162.95 21.2001 164.15 21.6 165.25 21.6C166.35 21.6 167.45 21.2 168.15 20.5C169.05 19.7 169.55 18.4 169.55 17.1C169.55 15.6 168.85 14.6 168.25 14C167.35 13.1 166.35 12.7001 165.15 12.7001C163.75 12.7001 162.75 13.3 162.25 13.8Z" fill="black"/>
<path d="M190.45 9.30005H194.85V25H190.45V23C188.85 25.3 186.75 25.5 185.65 25.5C180.85 25.5 177.65 21.7 177.65 17.1C177.65 12.5 180.75 8.80005 185.45 8.80005C186.65 8.80005 188.95 9.00005 190.45 11.3V9.30005ZM182.25 17.1C182.25 19.6 184.05 21.5 186.55 21.5C189.05 21.5 190.85 19.5 190.85 17.1C190.85 14.7 189.05 12.7001 186.55 12.7001C184.05 12.7001 182.25 14.6 182.25 17.1Z" fill="black"/>
<path d="M204.45 13.1V25H200.05V13.1H198.35V9.30005H200.05V3.90002H204.45V9.30005H207.45V13.1H204.45Z" fill="black"/>
<path d="M226.05 20.6C225.55 21.8 223.85 25.5 218.35 25.5C215.85 25.5 213.95 24.8 212.35 23.3C210.65 21.7 209.85 19.6001 209.85 17.2001C209.85 14.1001 211.15 12.2 212.25 11.1C214.05 9.29998 216.25 8.90002 218.15 8.90002C221.35 8.90002 223.15 10.2 224.25 11.5C225.95 13.5 226.15 15.9 226.15 17.6V18H214.45C214.45 18.9 214.75 20 215.25 20.6C215.75 21.3 216.65 22.1 218.35 22.1C220.05 22.1 221.25 21.3 222.05 20L226.05 20.6ZM221.95 15C221.55 12.9 219.85 11.9 218.25 11.9C216.65 11.9 214.95 12.9 214.55 15H221.95Z" fill="black"/>
</svg>
