<?xml version="1.0" encoding="utf-8"?>
<!-- Generator: Adobe Illustrator 25.0.1, SVG Export Plug-In . SVG Version: 6.00 Build 0)  -->
<svg version="1.0" id="katman_1" xmlns="http://www.w3.org/2000/svg" xmlns:xlink="http://www.w3.org/1999/xlink" x="0px" y="0px"
	 viewBox="0 0 800 600" style="enable-background:new 0 0 800 600;" xml:space="preserve">
<style type="text/css">
	.st0{fill-rule:evenodd;clip-rule:evenodd;fill:#424242;}
</style>
<path class="st0" d="M500.8,212.5v35.4h46.8c-7.5,23.6-29.7,40.8-55.8,40.8c-21.5,0-45.9-11.7-59.7-29.1
	c-6.4,11-13.3,21.1-20.4,30.1c21,21.2,51.5,34.3,80.2,34.3c51.7,0,93.8-42.1,93.8-93.8v-17.7H500.8z"/>
<path class="st0" d="M500.8,136.8c-3-0.3-5.9-0.4-9-0.4c-24.1,0-46,9.3-65.1,27.6c-14.6,14-27.4,33.1-39.3,58.3
	c-23.5,44.1-50.4,66.4-80,66.4c-32.2,0-58.5-26.2-58.5-58.5c0-32.2,26.2-58.5,58.5-58.5c11.7,0,23,3.5,32.7,10l19.8-29.3
	c-15.5-10.5-33.7-16-52.5-16c-51.7,0-93.8,42.1-93.8,93.8s42.1,93.8,93.8,93.8c24,0,46.5-9,66.9-26.6c16.3-14.1,31.3-34,44.6-59
	l0.4-0.8c20.8-44.4,44.6-66,72.6-66c3,0,6,0.2,9,0.7V136.8z"/>
<path class="st0" d="M157.5,441.4c-4.1,4.1-10.6,6.7-16.6,6.7c-16.6,0-22.6-11.5-22.7-22.3c-0.1-6.5,2.3-12.6,6.3-16.7
	c4-4.1,9.5-6.1,16.3-6.1c6.2,0,11.8,2.2,15.9,6.2l1.8,1.8l13-12.5l-1.9-1.9c-7.9-7.8-17.9-12-28.8-12c-12.1,0-22.5,4-29.9,11.4
	c-7.5,7.5-11.7,18.4-11.6,29.9c0.1,18.7,11,40.5,41.5,40.5c11.7,0,22-4,29.7-11.7l1.9-1.8l-13.1-13.3L157.5,441.4z"/>
<path class="st0" d="M221.5,448.4c-19.4,0-21.4-17.2-21.5-22.4c-0.2-7,2.1-13.5,6.3-17.8c3.8-3.9,8.9-5.9,15.2-5.9
	c6.2,0,11.3,1.9,15,5.7c4.2,4.3,6.5,10.8,6.4,17.8C242.8,436.8,237,448.4,221.5,448.4z M221.5,384.5c-27.7,0-40.4,21.4-40.4,41.3
	c0,20.2,12.5,40.5,40.4,40.5c27.5,0,40.1-20.4,40.3-40.6c0.1-11.5-4.1-22.5-11.6-30C243,388.4,233.1,384.5,221.5,384.5z"/>
<path class="st0" d="M277.4,464.7h19V386h-19V464.7z"/>
<path class="st0" d="M362.9,426.6L330.8,386h-15.1v78.7h19.1v-44.5l34.7,44.5h12.5v-78.8h-19.1V426.6z"/>
<path class="st0" d="M433.6,434.6h18.8v9.1c-4.3,3.2-8.5,4.5-14,4.5c-16.7,0-22.7-11.3-22.7-21.9c0-14.6,9.1-24.5,22.7-24.5
	c6,0,12.7,2.6,16.9,6.6l1.9,1.8l12.2-12.5l-1.9-1.8c-7.8-7.7-18.2-12-29.1-12c-12.9,0-23.6,4.5-31.1,13c-6.7,7.6-10.3,18-10.3,29.4
	c0,19.4,10.9,40.1,41.4,40.1c12.7,0,22.9-4.6,31.2-14.1l0.6-0.7V417h-36.7V434.6z"/>
<path class="st0" d="M560.7,403.8H584v60.8h19.1v-60.8h23.3V386h-65.7V403.8z"/>
<path class="st0" d="M700,404.7V386h-60.2v78.7H700v-18.9h-41.2v-11.3h39.8v-18.1h-39.8v-11.7H700z"/>
<path class="st0" d="M531.7,386h-18.5l-35.3,78.7h20.7l23.8-54.1l23.7,54.1h20.8L531.7,386z"/>
</svg>
